<svg width="100" height="100" viewBox="0 0 100 100" fill="none" xmlns="http://www.w3.org/2000/svg">
<rect width="100" height="100" rx="24" fill="#1A1819"/>
<g clip-path="url(#clip0_111_153)">
<path d="M39.3334 43.5601V60.6667H56.4374L49.2187 67.8854C49.1257 67.9789 49.0259 68.0653 48.9201 68.1441L48.6267 68.3334L48.3227 68.4774L48.0427 68.5707L47.6454 68.6507L47.3334 68.6667H35.1041L30.5521 73.2187C30.3061 73.4734 30.0118 73.6766 29.6865 73.8163C29.3611 73.9561 29.0112 74.0297 28.6571 74.0327C28.303 74.0358 27.9519 73.9683 27.6242 73.8343C27.2965 73.7002 26.9987 73.5022 26.7483 73.2518C26.498 73.0014 26.2999 72.7037 26.1659 72.3759C26.0318 72.0482 25.9643 71.6971 25.9674 71.343C25.9705 70.9889 26.044 70.639 26.1838 70.3136C26.3235 69.9883 26.5267 69.694 26.7814 69.4481L31.3334 64.8907V52.6667L31.3414 52.4667L31.3867 52.1307L31.4667 51.8347L31.5841 51.5387L31.7227 51.2774L31.9014 51.0214L32.1147 50.7814L39.3334 43.5601Z" fill="white"/>
<path d="M69.7707 47.3333L61.7707 55.3333H48.6667L56.4374 47.3333H69.7707Z" fill="white"/>
<path d="M52.6667 30.2292V43.5572L44.6667 51.5572V38.2266L52.6667 30.2292Z" fill="white"/>
<path d="M61.952 26C63.5336 25.999 65.0998 26.3095 66.5614 26.9139C68.0229 27.5184 69.351 28.4048 70.4698 29.5227C71.5886 30.6405 72.4763 31.9678 73.082 33.4288C73.6877 34.8898 73.9997 36.4558 74 38.0373C74.0021 39.3848 73.7869 40.7237 73.3627 42.0027L58 42V26.64C59.2507 26.2187 60.5813 26 61.952 26Z" fill="white"/>
</g>
<defs>
<clipPath id="clip0_111_153">
<rect width="64" height="64" fill="white" transform="translate(18 18)"/>
</clipPath>
</defs>
</svg>
